<svg width="47" height="47" viewBox="0 0 47 47" fill="none" xmlns="http://www.w3.org/2000/svg">
<circle cx="23.5" cy="23.5" r="23.5" fill="url(#paint0_linear_92_593)"/>
<path d="M23.4 12.536C25.768 12.536 27.8373 13.0053 29.608 13.944C31.3787 14.8827 32.744 16.2053 33.704 17.912C34.6853 19.5973 35.176 21.5493 35.176 23.768C35.176 25.9653 34.6853 27.9173 33.704 29.624C32.744 31.3307 31.368 32.6533 29.576 33.592C27.8053 34.5307 25.7467 35 23.4 35H14.984V12.536H23.4ZM23.048 30.264C25.1173 30.264 26.728 29.6987 27.88 28.568C29.032 27.4373 29.608 25.8373 29.608 23.768C29.608 21.6987 29.032 20.088 27.88 18.936C26.728 17.784 25.1173 17.208 23.048 17.208H20.456V30.264H23.048Z" fill="white"/>
<defs>
<linearGradient id="paint0_linear_92_593" x1="13.9336" y1="-4.78319" x2="29.9469" y2="36.8097" gradientUnits="userSpaceOnUse">
<stop stop-color="#FFEC44"/>
<stop offset="1" stop-color="#F87171"/>
</linearGradient>
</defs>
</svg>
