<svg width="47" height="47" viewBox="0 0 47 47" fill="none" xmlns="http://www.w3.org/2000/svg">
<circle cx="23.5" cy="23.5" r="23.5" fill="url(#paint0_linear_92_560)"/>
<path d="M13.056 23.736C13.056 21.5173 13.536 19.544 14.496 17.816C15.456 16.0667 16.7893 14.712 18.496 13.752C20.224 12.7707 22.176 12.28 24.352 12.28C27.0187 12.28 29.3013 12.984 31.2 14.392C33.0987 15.8 34.368 17.72 35.008 20.152H28.992C28.544 19.2133 27.904 18.4987 27.072 18.008C26.2613 17.5173 25.3333 17.272 24.288 17.272C22.6027 17.272 21.2373 17.8587 20.192 19.032C19.1467 20.2053 18.624 21.7733 18.624 23.736C18.624 25.6987 19.1467 27.2667 20.192 28.44C21.2373 29.6133 22.6027 30.2 24.288 30.2C25.3333 30.2 26.2613 29.9547 27.072 29.464C27.904 28.9733 28.544 28.2587 28.992 27.32H35.008C34.368 29.752 33.0987 31.672 31.2 33.08C29.3013 34.4667 27.0187 35.16 24.352 35.16C22.176 35.16 20.224 34.68 18.496 33.72C16.7893 32.7387 15.456 31.384 14.496 29.656C13.536 27.928 13.056 25.9547 13.056 23.736Z" fill="white"/>
<defs>
<linearGradient id="paint0_linear_92_560" x1="13.9336" y1="-4.78319" x2="29.9469" y2="36.8097" gradientUnits="userSpaceOnUse">
<stop stop-color="#FFEC44"/>
<stop offset="1" stop-color="#F87171"/>
</linearGradient>
</defs>
</svg>
