<svg width="47" height="47" viewBox="0 0 47 47" fill="none" xmlns="http://www.w3.org/2000/svg">
<circle cx="23.5" cy="23.5" r="23.5" fill="url(#paint0_linear_92_571)"/>
<path d="M28.584 23.48C29.8853 23.7573 30.9307 24.408 31.72 25.432C32.5093 26.4347 32.904 27.5867 32.904 28.888C32.904 30.7653 32.2427 32.2587 30.92 33.368C29.6187 34.456 27.7947 35 25.448 35H14.984V12.536H25.096C27.3787 12.536 29.16 13.0587 30.44 14.104C31.7413 15.1493 32.392 16.568 32.392 18.36C32.392 19.6827 32.04 20.7813 31.336 21.656C30.6533 22.5307 29.736 23.1387 28.584 23.48ZM20.456 21.624H24.04C24.936 21.624 25.6187 21.432 26.088 21.048C26.5787 20.6427 26.824 20.056 26.824 19.288C26.824 18.52 26.5787 17.9333 26.088 17.528C25.6187 17.1227 24.936 16.92 24.04 16.92H20.456V21.624ZM24.488 30.584C25.4053 30.584 26.1093 30.3813 26.6 29.976C27.112 29.5493 27.368 28.9413 27.368 28.152C27.368 27.3627 27.1013 26.744 26.568 26.296C26.056 25.848 25.3413 25.624 24.424 25.624H20.456V30.584H24.488Z" fill="white"/>
<defs>
<linearGradient id="paint0_linear_92_571" x1="13.9336" y1="-4.78319" x2="29.9469" y2="36.8097" gradientUnits="userSpaceOnUse">
<stop stop-color="#FFEC44"/>
<stop offset="1" stop-color="#F87171"/>
</linearGradient>
</defs>
</svg>
