<?xml version="1.0" standalone="no"?>
<svg viewBox="0 0 200 200" xmlns="http://www.w3.org/2000/svg">
  <path fill="#FF0066" d="M34,-53.8C46.7,-51.5,61.4,-47.7,65.2,-38.5C68.9,-29.3,61.7,-14.7,63,0.8C64.3,16.2,74.2,32.4,70.5,41.7C66.8,51,49.5,53.3,35.5,58.8C21.5,64.3,10.7,72.9,-1.3,75.1C-13.2,77.3,-26.5,73.1,-34.2,63.9C-42,54.8,-44.3,40.9,-53.2,29.4C-62.2,17.9,-77.8,9,-80.4,-1.5C-83,-12,-72.7,-24,-62.2,-32.8C-51.7,-41.6,-41.1,-47.2,-30.7,-50.8C-20.3,-54.4,-10.2,-56.1,0.2,-56.5C10.6,-56.9,21.3,-56.1,34,-53.8Z" transform="translate(100 100)" />
</svg>
